<?xml version="1.0" encoding="UTF-8"?>
<svg id="Layer_1" xmlns="http://www.w3.org/2000/svg" version="1.1" viewBox="0 0 300 300">
  <!-- Generator: Adobe Illustrator 29.6.0, SVG Export Plug-In . SVG Version: 2.1.1 Build 207)  -->
  <defs>
    <style>
      .st0 {
        fill: #9a8888;
      }

      .st1 {
        fill: #575756;
      }
    </style>
  </defs>
  <g>
    <path class="st1" d="M12.7,258.4c-.4,0-.6-.2-.6-.6v-3.5c0-.4.2-.6.6-.6h1.4c3.3,0,4.9-1.7,4.9-5.2v-26.6c0-.4.2-.6.6-.6h3.9c.4,0,.6.2.6.6v26.4c0,3.3-.8,5.8-2.5,7.5-1.7,1.7-4.1,2.6-7.3,2.6h-1.6Z"/>
    <path class="st1" d="M36.7,258.4c-.4,0-.6-.2-.6-.6v-3.5c0-.4.2-.6.6-.6h7.3c.8,0,1.6,0,2.3-.3.7-.2,1.3-.5,1.8-.9.5-.4.9-1,1.2-1.8.3-.8.4-1.7.4-2.8v-1.6h-6.5c-1.8,0-3.4-.2-4.9-.6-1.4-.4-2.7-1.1-3.7-2.1-1-1-1.8-2.2-2.3-3.8-.5-1.6-.8-3.5-.8-5.9s.3-4.3.9-6.1c.6-1.7,1.5-3.2,2.6-4.3,1.1-1.1,2.3-2,3.8-2.5,1.4-.5,2.9-.8,4.5-.8,3.6,0,6.5,1,8.5,3.1,2,2.1,3.1,5.5,3.1,10.2v8h4.2c.8,0,1.4.2,1.8.5.4.3.6.9.6,1.7s-.2,1.7-.6,2c-.4.3-1,.5-1.9.5h-4.2v1.5c0,1.9-.3,3.5-.8,4.9-.5,1.3-1.2,2.4-2.1,3.3-.9.9-2,1.5-3.3,1.9-1.3.4-2.7.6-4.3.6h-7.6ZM43.3,224.9c-2,0-3.7.8-4.9,2.4-1.2,1.6-1.8,3.8-1.8,6.5s.6,4.9,1.7,6c1.2,1.1,2.9,1.6,5.2,1.6h6.2v-8c0-2.7-.5-4.8-1.5-6.3-1-1.5-2.6-2.3-4.9-2.3Z"/>
    <path class="st1" d="M59.6,246.2c-.8,0-1.4-.1-1.8-.4-.4-.3-.6-.9-.6-1.7s.2-1.7.6-2.1c.4-.4,1-.5,1.9-.5h3.8c1,0,1.8-.2,2.2-.7s.7-1.3.7-2.5v-16.4c0-.4.2-.6.6-.6h3.9c.4,0,.6.2.6.6v15.4c0,1.4.5,2.4,1.5,3.1,1,.7,2.3,1,4,1h.7c.8,0,1.4.2,1.8.5.4.3.6.9.6,1.7s-.2,1.7-.6,2c-.4.3-1,.5-1.9.5h-1.3c-1.3,0-2.4-.3-3.4-.8-1-.5-1.7-1.3-2.3-2.4-1,2.1-3.1,3.2-6.4,3.2h-4.8ZM66.8,215.2c-.4,0-.6-.2-.6-.6v-4.5c0-.4.2-.6.6-.6h4.2c.4,0,.6.2.6.6v4.5c0,.4-.2.6-.6.6h-4.2Z"/>
    <path class="st1" d="M77.2,246.2c-.8,0-1.4-.1-1.8-.4-.4-.3-.6-.9-.6-1.7s.2-1.7.6-2.1c.4-.4,1-.5,1.9-.5h3.8c1,0,1.8-.2,2.2-.7s.7-1.3.7-2.5v-32.9c0-.4.2-.6.6-.6h3.9c.4,0,.6.2.6.6v33.2c0,2.6-.5,4.6-1.6,5.8-1.1,1.2-2.9,1.9-5.5,1.9h-4.8Z"/>
    <path class="st1" d="M102.8,245.6c0,.4-.2.6-.6.6h-3.9c-.4,0-.6-.2-.6-.6v-40.3c0-.4.2-.6.6-.6h3.9c.4,0,.6.2.6.6v40.3Z"/>
    <path class="st1" d="M148.6,237.1c1.3.5,2.6,1,3.8,1.5,1.2.5,2.4,1,3.6,1.4,1.2.4,2.3.8,3.4,1,1.1.3,2.3.4,3.5.4h4.9c.8,0,1.4.1,1.8.4.4.3.6.9.6,1.7s-.2,1.7-.6,2.1c-.4.4-1,.5-1.9.5h-4.3c.2.3.4.9.7,1.6.3.8.4,1.6.4,2.5s-.2,1.9-.6,2.9c-.4,1-1,1.8-1.9,2.6-.9.8-2.1,1.4-3.5,1.9-1.5.5-3.3.7-5.4.7h-14.3c-4.8,0-8.4-1.2-10.9-3.6-2.5-2.4-3.7-5.6-3.7-9.8s.4-4.7,1.2-6.9c.8-2.2,1.7-4.1,2.8-5.6.2-.3.4-.3.9,0l3.4,1.8c.3.2.4.5.2.8-.7,1.1-1.4,2.5-2.1,4.2-.7,1.7-1,3.4-1,5.3s.3,3.1.8,4.2c.5,1.2,1.3,2.1,2.2,2.8.9.7,2,1.2,3.2,1.5,1.2.3,2.5.5,3.8.5h13.5c2.4,0,4.1-.4,5.1-1.1,1-.7,1.4-1.6,1.4-2.6s-.3-1.7-.8-2.3c-.5-.7-1.4-1.3-2.4-1.8-1.1-.5-2.4-1.1-4-1.7-1.6-.6-3.4-1.2-5.5-2-.4-.1-.5-.4-.4-.7l1.3-3.7c.1-.4.4-.5.7-.4ZM138.6,268.9c-.4,0-.6-.2-.6-.6v-4.5c0-.4.2-.6.6-.6h4.2c.4,0,.6.2.6.6v4.5c0,.4-.2.6-.6.6h-4.2ZM146,268.9c-.4,0-.6-.2-.6-.6v-4.5c0-.4.2-.6.6-.6h4.2c.4,0,.6.2.6.6v4.5c0,.4-.2.6-.6.6h-4.2Z"/>
    <path class="st1" d="M182.1,224.9c-1.4,0-2.7.3-3.8.9-1.2.6-2.2,1.3-3.1,2.3-.2.3-.5.3-.9,0l-2.7-2.2c-.4-.3-.4-.6-.2-.9,1.1-1.4,2.6-2.6,4.2-3.5,1.7-.9,3.8-1.4,6.2-1.4s5.1.4,6.9,1.3c1.8.9,3.2,2,4.2,3.4,1,1.4,1.8,3.1,2.2,4.9.4,1.9.6,3.8.6,5.8s-.2,3.7-.5,5.1c-.3,1.3-.9,2.4-1.6,3.2-.7.8-1.6,1.4-2.7,1.7-1.1.3-2.4.5-3.9.5h-19.2c-1.6,0-2.4-.8-2.4-2.4s.2-1.7.6-1.9c.4-.3,1-.4,1.9-.4h17.3c1.1,0,2.1,0,2.7-.3.7-.2,1.2-.5,1.6-.9.4-.4.6-1,.7-1.8.1-.8.2-1.7.2-2.8,0-1.6-.1-3-.4-4.4-.3-1.3-.7-2.5-1.4-3.4-.6-1-1.5-1.7-2.5-2.2-1.1-.5-2.4-.8-4-.8Z"/>
    <path class="st1" d="M208.6,245.6c0,.4-.2.6-.6.6h-3.9c-.4,0-.6-.2-.6-.6v-40.3c0-.4.2-.6.6-.6h3.9c.4,0,.6.2.6.6v40.3Z"/>
    <path class="st1" d="M221.4,258.4c-.4,0-.6-.2-.6-.6v-3.5c0-.4.2-.6.6-.6h7.3c.8,0,1.6,0,2.3-.3.7-.2,1.3-.5,1.8-.9.5-.4.9-1,1.2-1.8.3-.8.4-1.7.4-2.8v-1.6h-6.5c-1.8,0-3.4-.2-4.9-.6-1.4-.4-2.7-1.1-3.7-2.1-1-1-1.8-2.2-2.3-3.8-.5-1.6-.8-3.5-.8-5.9s.3-4.3.9-6.1c.6-1.7,1.5-3.2,2.6-4.3,1.1-1.1,2.3-2,3.8-2.5,1.4-.5,2.9-.8,4.5-.8,3.6,0,6.5,1,8.5,3.1,2,2.1,3.1,5.5,3.1,10.2v8h4.2c.8,0,1.4.2,1.8.5.4.3.6.9.6,1.7s-.2,1.7-.6,2c-.4.3-1,.5-1.9.5h-4.2v1.5c0,1.9-.3,3.5-.8,4.9-.5,1.3-1.2,2.4-2.1,3.3-.9.9-2,1.5-3.3,1.9-1.3.4-2.7.6-4.3.6h-7.6ZM228,224.9c-2,0-3.7.8-4.9,2.4-1.2,1.6-1.8,3.8-1.8,6.5s.6,4.9,1.7,6c1.2,1.1,2.9,1.6,5.2,1.6h6.2v-8c0-2.7-.5-4.8-1.5-6.3-1-1.5-2.6-2.3-4.9-2.3Z"/>
    <path class="st1" d="M243.9,246.2c-.8,0-1.4-.1-1.8-.4-.4-.3-.6-.9-.6-1.7s.2-1.7.6-2.1c.4-.4,1-.5,1.9-.5h3.8c1,0,1.8-.2,2.2-.7s.7-1.3.7-2.5v-16.4c0-.4.2-.6.6-.6h3.9c.4,0,.6.2.6.6v2.1c2-1.1,4.2-2,6.7-2.7,2.4-.7,4.9-1.1,7.5-1.1s5.2.4,7.1,1.2c1.9.8,3.4,1.8,4.5,3.1,1.1,1.3,1.9,2.9,2.4,4.6.4,1.8.7,3.6.7,5.6s-.2,4-.5,5.5c-.3,1.5-.9,2.7-1.6,3.6-.7.9-1.7,1.6-2.9,2-1.2.4-2.6.6-4.2.6h-20.5c-1,0-1.7-.3-2.1-.8-1,.5-2.4.8-4.1.8h-4.8ZM269.6,224.9c-1.2,0-2.5.1-3.7.3-1.3.2-2.5.5-3.7.9-1.2.4-2.3.8-3.4,1.2-1.1.4-2.1.9-3,1.3v9.8c0,1-.1,2-.3,2.9h18.1c1.1,0,2.1-.1,2.8-.3.7-.2,1.3-.6,1.7-1.1.4-.5.7-1.2.8-2.1.1-.9.2-2.1.2-3.5s-.2-2.8-.5-4c-.3-1.2-.8-2.2-1.6-3-.7-.8-1.7-1.4-2.9-1.9-1.2-.4-2.7-.6-4.6-.6ZM267.8,215.2c-.4,0-.6-.2-.6-.6v-4.5c0-.4.2-.6.6-.6h4.2c.4,0,.6.2.6.6v4.5c0,.4-.2.6-.6.6h-4.2Z"/>
  </g>
  <g>
    <path class="st0" d="M227.6,64.3c-4.2-10-10.3-19-18-26.8-7.7-7.7-16.7-13.8-26.8-18-10.4-4.4-21.4-6.6-32.8-6.6s-22.4,2.2-32.8,6.6c-10,4.2-19,10.3-26.8,18-7.7,7.7-13.8,16.7-18,26.8-4.4,10.4-6.6,21.4-6.6,32.8s2.2,22.4,6.6,32.8c4.2,10,10.3,19,18,26.8,7.7,7.7,16.7,13.8,26.8,18,10.4,4.4,21.4,6.6,32.8,6.6s22.4-2.2,32.8-6.6c10-4.2,19-10.3,26.8-18,7.7-7.7,13.8-16.7,18-26.8,4.4-10.4,6.6-21.4,6.6-32.8s-2.2-22.4-6.6-32.8ZM150,177.1c-44.1,0-80-35.9-80-80S105.9,17.1,150,17.1s80,35.9,80,80-35.9,80-80,80Z"/>
    <path class="st0" d="M224.6,97.1c0-10.1-2-19.8-5.9-29-3.8-8.9-9.1-16.9-16-23.7-6.8-6.8-14.8-12.2-23.7-16-9.2-3.9-19-5.9-29-5.9s-19.8,2-29,5.9c-8.9,3.8-16.9,9.1-23.7,16-6.8,6.8-12.2,14.8-16,23.7-3.9,9.2-5.9,19-5.9,29s2,19.8,5.9,29c3.8,8.9,9.1,16.9,16,23.7,6.8,6.8,14.8,12.2,23.7,16,9.2,3.9,19,5.9,29,5.9s19.8-2,29-5.9c8.9-3.8,16.9-9.1,23.7-16,6-6,10.8-12.8,14.5-20.4.3-.3.5-.7.5-1.1.3-.8.7-1.5,1-2.3,3.9-9.2,5.9-19,5.9-29ZM193.5,114.9c0,0-.2-.1-.3-.2l-4.5-3.3c.4-.3.7-.5,1.1-.6.5-.2,1.1-.3,1.8-.4l1.9,4.6ZM200.8,115.4c-.7-.2-1.5-.2-2.2-.2h-1.2s-2.2-5.4-2.2-5.4c1.2-.4,1.9-1.1,2.6-1.8.3-.2.5-.4.7-.6h.1c0-.1,3.8,9.1,3.8,9.1-.4-.4-1-.8-1.7-1.1ZM211.9,124.9l-3.4-3-6.9-16.9,2.8-2.3,9.3,23.5c-.7-.3-1.2-.8-1.8-1.3ZM174.1,104.8l-5.6-4.1c-.7-.5-1.6-.8-2.5-.8h0c-.2,0-1.6,0-2.5.8l-7.6,5.6-6.6,1.6c-1.2.3-2.3,1-2.8,1.8l-3.4,5.3-7.7-6.2c-.4-.3-.8-.5-1.3-.7h0c0,0-.1,0-.1,0-.5-.1-1-.2-1.5-.2h-5.6c-1.3-3-2.1-7-2.1-11,0-14,11.4-25.4,25.4-25.4s25.4,11.4,25.4,25.4-.4,5.3-1.2,7.9ZM90.4,109.9c1.4-.4,2.3-1.2,3.1-1.9.1-.1.2-.2.3-.3l20.1,49.9c-2.2-1.3-4.4-2.8-6.5-4.4l-17.6-43.2c.2,0,.3,0,.5-.1ZM103.4,100.8c.2,0,.4.2.6.4,0,0,.2.2.3.2h.2c.6.5,1.2.9,1.9,1.3.4.2.8.4,1.1.6.9.5,1.8,1,2.9,1.4l25.2,61.4c-2.2-.5-4.3-1-6.4-1.7l-26-63.7c.1,0,.2,0,.3,0ZM114.5,105.4c.6,0,1.1,0,1.7.1h0c.2,0,.4,0,.7,0,.5,0,1.6,0,1.9.2.1.1,1.2,1.3,2.3,2.4l24.1,59.2c-1.9-.1-3.7-.3-5.6-.6l-25.2-61.4ZM140,117.5c0,0,.1.2.2.3.7.5,1.8.8,3,.9l-2.5,5.9-3.9-9.7,3.2,2.6ZM149.9,111.9l.3-.5c.2-.2,1.4-.4,1.9-.5.3,0,.5,0,.7-.1h0c.7-.2,1.5-.3,2.2-.5l-10.2,24.3-2.2-5.3,7.3-17.3ZM159.7,108.3c.6-.4,1.1-.8,1.6-1.2.4-.3.7-.6,1.1-.9.7-.5,1.2-1.1,1.7-1.6v-.2c.2,0,.3-.2.4-.3.2-.2.3-.4.5-.5.2-.1.3-.2.4-.2.3,0,.8.2,1.3.6l-17.5,41.5-2.6-6.4,13-30.9ZM169.7,106.3l4.4,3.2h-.2c0-.1-20,47.3-20,47.3l-2.7-6.6,18.5-43.9ZM155.8,161.5l21-49.9c.6.4,1.3.7,2.1.9.8.1,1.6.1,2.3.1.3,0,.6,0,.9,0l-22.8,54.2c-.4,0-.9.1-1.3.2l-2.3-5.5ZM185.6,113.8c1.3.9,2.2,1.4,2.9,1.8.5.3.9.6,1.4.9l-20.3,48.3c-2,.6-4,1.1-6.1,1.5l22.1-52.4ZM201.4,120.7l3.5,3.1-12.4,29.4c-2.1,1.6-4.4,3.1-6.7,4.5l15.6-37ZM207.6,100.7c0,0,.1,0,.2,0,.2,0,.4.2.6.4,0,0,.2.2.3.2h.2c.6.5,1.2.9,1.9,1.3.4.2.8.4,1.1.6.2.1.4.2.6.3l5.3,13c-.5,1.8-1.1,3.6-1.8,5.4l-8.3-21.2ZM216.9,105.2c.9.1,1.7.2,2.5.3.2,0,.4,0,.6-.2,0,0,0,0,0,0-.2,1.8-.5,3.6-.8,5.4l-2.2-5.5ZM150,26.7c38.8,0,70.4,31.6,70.4,70.4s0,3.5-.2,5.2c-.1-.1-.3-.2-.5-.2l-2.6-.2-8.1-4c-1-.5-2.4-.4-2.5-.4-.9,0-1.8.4-2.4.9l-9,7.2c-.2.2-.4.3-.6.5-.2.2-.4.3-.5.5-.6.5-1.7.6-2.5.7-.2,0-.4,0-.5,0-1,0-2,.1-2.9.5-.9.3-1.6.9-2.2,1.3l-.4.4c-.9-.2-1.9-.2-2.8-.1-.2,0-.4,0-.5,0-.8,0-1.9,0-2.5-.4-.2-.1-.4-.3-.6-.5-.2-.2-.4-.3-.6-.5l-1.1-.8c1.2-3.2,1.8-6.6,1.8-10.1,0-16-13-28.9-28.9-28.9s-28.9,13-28.9,28.9.2,4.1.6,6.2c-.6-.3-1.3-.6-2.2-.7l-6.7-.6-8.1-4c-1-.5-2.4-.4-2.5-.4-.9,0-1.8.4-2.4.9l-9,7.2c-.2.2-.4.3-.6.5-.2.2-.4.3-.5.5-.6.5-1.7.6-2.5.7-.2,0-.4,0-.5,0-1,0-2,.1-2.9.5-.9.3-1.6.9-2.2,1.3l-.8.6c-.7-4.1-1.1-8.3-1.1-12.5,0-38.8,31.6-70.4,70.4-70.4ZM92.3,137.4l-10-24.5c.6-.5,1.2-.9,1.8-1.4.5-.3.9-.6,1.4-.8.2,0,.5-.2.7-.2l15.4,37.8c-3.5-3.3-6.6-6.9-9.4-10.8ZM118.9,160.3l-22.1-54.9,3.3-2.6,24.5,60.1c-1.9-.8-3.9-1.6-5.7-2.5ZM149.2,167.5l-22.9-56.2c.1,0,.2,0,.3,0h4.9c0-.1,22.9,56.1,22.9,56.1-1.4,0-2.9.1-4.4.1s-.6,0-.8,0ZM174.1,163.3l18.8-44.6c.2.1.4.3.6.5.9.7,2.3.6,3.7.4.3,0,.6,0,.9,0l-17.2,41c-2.2,1.1-4.4,2-6.7,2.9ZM198.5,148.1l9.2-21.9,1.5,1.3s0,0,.1,0c0,0,0,0,0,0,0,0,0,0,0,0,0,0,0,0,0,0,.5.6,1.2.9,1.8,1.2.5.2.9.4,1.3.5-3.6,7-8.4,13.2-14,18.6Z"/>
    <path class="st0" d="M177.2,68.9l15.4-14c.9-.9.9-2.3,0-3.1-.9-.9-2.5-.9-3.4,0h0s-15.4,14-15.4,14c-.9.9-.9,2.3,0,3.1.9.9,2.5.9,3.4,0Z"/>
    <path class="st0" d="M122.4,68.9c.9.9,2.5.9,3.4,0,.9-.9.9-2.3,0-3.1l-15.4-14c-.9-.9-2.5-.9-3.4,0-.9.9-.9,2.3,0,3.1l15.4,14Z"/>
    <path class="st0" d="M133.7,61.1c.5,1.1,1.9,1.7,3.2,1.2,1.2-.5,1.8-1.8,1.3-2.9l-5.6-12.2c-.5-1.1-1.9-1.7-3.2-1.2-1.2.5-1.8,1.8-1.3,2.9l5.6,12.2Z"/>
    <path class="st0" d="M181.1,79c.5,1.1,1.9,1.7,3.2,1.2l13.4-5.1c1.2-.5,1.8-1.8,1.3-2.9-.5-1.1-1.9-1.7-3.2-1.2l-13.4,5.1c-1.2.5-1.8,1.8-1.3,2.9Z"/>
    <path class="st0" d="M101.9,75.1l13.4,5.1c1.2.5,2.7,0,3.2-1.2.5-1.1,0-2.4-1.3-2.9l-13.4-5.1c-1.2-.5-2.7,0-3.2,1.2-.5,1.1,0,2.4,1.3,2.9Z"/>
    <path class="st0" d="M162.8,62.3c1.2.5,2.7,0,3.2-1.2l5.6-12.2c.5-1.1,0-2.4-1.3-2.9-1.2-.5-2.7,0-3.2,1.2l-5.6,12.2c-.5,1.1,0,2.4,1.3,2.9Z"/>
    <path class="st0" d="M149.8,59.9c1.3,0,2.4-1,2.4-2.2v-21.2c0-1.2-1.1-2.2-2.4-2.2s-2.4,1-2.4,2.2v21.2c0,1.2,1.1,2.2,2.4,2.2Z"/>
    <path class="st0" d="M90.2,93h23.2c1.3,0,2.4-1,2.4-2.2s-1.1-2.2-2.4-2.2h-23.2c-1.3,0-2.4,1-2.4,2.2s1.1,2.2,2.4,2.2Z"/>
    <path class="st0" d="M183.7,90.8c0,1.2,1.1,2.2,2.4,2.2h23.2c1.3,0,2.4-1,2.4-2.2s-1.1-2.2-2.4-2.2h-23.2c-1.3,0-2.4,1-2.4,2.2Z"/>
  </g>
  <g>
    <path class="st1" d="M10.4,278.3c.6,0,1,.2,1.4.6.4.4.6.9.6,1.4s-.2,1-.6,1.4c-.4.4-.9.6-1.4.6s-1-.2-1.4-.6c-.4-.4-.6-.9-.6-1.4s0-.6.2-.8c.1-.3.3-.5.5-.7.4-.3.8-.5,1.3-.5Z"/>
    <path class="st1" d="M43.5,285.2h-4.6v-.2c.4,0,.7-.1.9-.2.3-.2.4-.4.4-.8s0-.5-.2-.8v-.3c-.1,0-.8-1.7-.8-1.7h-3.1l-.4,1-.2.4c-.2.5-.3.9-.3,1.2s0,.3.1.5c0,.2.2.3.3.4.2.1.4.2.7.2v.2h-3.2v-.2c.2,0,.5,0,.7-.2.2-.1.4-.3.6-.5.2-.2.3-.4.4-.7s.3-.8.6-1.4l2.6-6.7h.4l3.1,7.4c.2.6.4,1,.6,1.2.1.2.3.4.4.5.1,0,.2.1.4.2.1,0,.4,0,.7.1v.2ZM39,281l-1.5-3.7-1.4,3.7h2.9Z"/>
    <path class="st1" d="M52.7,276.9v6.1c0,.5,0,.8,0,1.1,0,.2.2.4.3.6.1.1.3.2.4.3.2,0,.4,0,.7.1v.2h-3.3v-.2c.3,0,.5,0,.7-.1.2,0,.3-.2.4-.3.1-.2.2-.3.3-.6,0-.2,0-.6,0-1.1v-5.2c0-.5,0-.8,0-1.1,0-.2-.2-.4-.3-.6-.1-.1-.3-.2-.4-.3-.2,0-.4,0-.7-.1v-.2h2.7l5.7,7.3v-5.1c0-.5,0-.8,0-1.1s-.2-.4-.3-.6c-.1-.1-.3-.2-.4-.3-.2,0-.4,0-.7-.1v-.2h3.3v.2c-.5,0-.8.1-1.1.4-.1.2-.2.3-.3.6s0,.6,0,1.1v7.4h-.3l-6.6-8.4Z"/>
    <path class="st1" d="M81.6,276.9v6.1c0,.5,0,.8,0,1.1,0,.2.2.4.3.6.1.1.3.2.4.3.2,0,.4,0,.7.1v.2h-3.3v-.2c.3,0,.5,0,.7-.1.2,0,.3-.2.4-.3.1-.2.2-.3.3-.6,0-.2,0-.6,0-1.1v-5.2c0-.5,0-.8,0-1.1,0-.2-.2-.4-.3-.6-.1-.1-.3-.2-.4-.3-.2,0-.4,0-.7-.1v-.2h2.7l5.7,7.3v-5.1c0-.5,0-.8,0-1.1s-.2-.4-.3-.6c-.1-.1-.3-.2-.4-.3-.2,0-.4,0-.7-.1v-.2h3.3v.2c-.5,0-.8.1-1.1.4-.1.2-.2.3-.3.6s0,.6,0,1.1v7.4h-.3l-6.6-8.4Z"/>
    <path class="st1" d="M98.3,280.5c0-.8.2-1.5.5-2.2.3-.7.8-1.3,1.5-1.8.5-.4,1-.7,1.6-.9s1.1-.3,1.7-.3,1.4.2,2.1.5c.7.3,1.3.8,1.8,1.3.8.9,1.2,2,1.2,3.2s-.1,1.2-.3,1.7c-.2.6-.5,1.1-.9,1.5-.5.6-1.1,1-1.8,1.3-.7.3-1.4.5-2.2.5s-1.5-.2-2.1-.5c-.7-.3-1.3-.7-1.8-1.3-.4-.4-.7-.9-.9-1.5-.2-.6-.3-1.1-.3-1.7ZM100,280.6c0,1.4.4,2.5,1.1,3.5.3.4.7.7,1.1.9s.8.3,1.3.3.9,0,1.3-.3c.4-.2.7-.5,1.1-.9.7-.9,1.1-2.1,1.1-3.5s-.1-1.5-.3-2.2-.5-1.2-.9-1.7c-.3-.4-.6-.7-1-.8-.4-.2-.8-.3-1.3-.3s-.9,0-1.3.3c-.4.2-.7.5-1,.8-.4.5-.7,1-.9,1.7-.2.7-.3,1.4-.3,2.2Z"/>
    <path class="st1" d="M121.4,275.6v.2c-.3,0-.5,0-.7.1-.2,0-.3.2-.4.3-.2.2-.3.4-.3.6,0,.2,0,.6,0,1.2v4c0,.6,0,1.1,0,1.4,0,.3.1.6.3.8.2.4.5.6.8.8s.7.3,1.3.3,1,0,1.4-.2c.4-.1.8-.4,1.1-.6.2-.2.3-.3.4-.5,0-.2.1-.4.2-.7,0-.2,0-.6,0-1.4v-3.9c0-.5,0-.8,0-1.1,0-.2-.2-.4-.3-.6-.1-.1-.3-.2-.4-.3-.2,0-.4,0-.7-.1v-.2h3.3v.2c-.3,0-.5,0-.7.1-.2,0-.3.2-.4.3-.1.2-.2.3-.3.6,0,.2,0,.6,0,1.1v4.5c0,.7,0,1.1-.2,1.5-.1.3-.3.6-.6.9-.7.6-1.7.9-2.9.9s-2.3-.3-2.9-.8c-.4-.4-.7-.8-.7-1.4,0-.2,0-.6,0-1.1v-4.3c0-.5,0-.8,0-1.1s-.2-.4-.3-.6c-.1-.1-.3-.2-.4-.3-.2,0-.4,0-.7-.1v-.2h4.5Z"/>
    <path class="st1" d="M138.1,280.5v2.5c0,.5,0,.8,0,1.1s.2.4.3.6c.1.1.3.2.4.3.2,0,.4.1.7.1v.2h-4.5v-.2c.3,0,.5,0,.7-.1.2,0,.3-.2.4-.3.2-.2.3-.3.3-.6s0-.6,0-1.1v-5.2c0-.5,0-.8,0-1.1s-.2-.4-.3-.6c-.1-.1-.3-.2-.4-.3-.2,0-.4,0-.7-.1v-.2h3.4c.6,0,.9,0,1.1,0,.7,0,1.3.1,1.7.3.5.2.8.5,1.1.8.3.4.4.8.4,1.3,0,.7-.3,1.3-.8,1.8-.2.1-.4.2-.6.3-.2,0-.5.2-.8.2.3.1.5.2.6.4.1,0,.2.2.3.4,0,.1.2.4.4.8.4.9.7,1.5.9,1.9.2.4.4.7.5.9.1.1.2.2.3.3.1,0,.3,0,.5.1v.2h-2.3c-.1-.3-.2-.4-.2-.5l-.5-1.1c-.3-.7-.6-1.3-.9-1.8-.3-.5-.6-.9-.8-1.1-.1,0-.3-.2-.4-.2-.1,0-.3,0-.5,0h-.3ZM138.1,280.3h.3c.6,0,1,0,1.3,0,.3,0,.5-.2.7-.4.5-.5.7-1.1.7-1.7s0-.7-.2-1c-.1-.3-.3-.6-.6-.8-.2-.2-.4-.3-.7-.3-.3,0-.7,0-1.2,0h-.3v4.5Z"/>
    <path class="st1" d="M162.8,285.2v-2.9s.2,0,.2,0c.2.7.4,1.3.7,1.8.5.8,1.2,1.2,1.9,1.2s1-.2,1.3-.5c.4-.4.5-.8.5-1.4s0-.5-.1-.7c0-.2-.2-.5-.3-.6-.1-.2-.3-.4-.6-.5-.2-.2-.6-.4-1.1-.6-.4-.2-.8-.4-1-.6s-.4-.3-.6-.5c-.4-.4-.6-1-.6-1.6s0-.8.2-1.1c.2-.4.4-.7.7-.9.5-.5,1.1-.7,1.8-.7s.4,0,.6,0c.2,0,.4.1.8.3.2,0,.4.2.5.2,0,0,.2,0,.2,0,.2,0,.3-.1.3-.4h.2v2.8s-.1,0-.1,0c-.1-.4-.2-.8-.3-1s-.2-.5-.3-.7c-.2-.4-.5-.6-.8-.8-.3-.2-.6-.3-1-.3-.5,0-.9.2-1.2.5-.1.1-.2.3-.3.5,0,.2-.1.4-.1.6,0,.8.5,1.4,1.5,1.9l1,.5c.8.4,1.3.8,1.7,1.2.4.5.6,1.1.6,1.7s0,.8-.3,1.2c-.2.5-.6,1-1.1,1.3-.5.3-1.1.4-1.7.4s-1.2-.1-1.7-.4c-.3-.1-.5-.2-.5-.2,0,0-.1,0-.2,0-.2,0-.4.1-.5.3h-.2Z"/>
    <path class="st1" d="M265.7,285.2v-2.9s.2,0,.2,0c.2.7.4,1.3.7,1.8.5.8,1.2,1.2,1.9,1.2s1-.2,1.3-.5c.4-.4.5-.8.5-1.4s0-.5-.1-.7c0-.2-.2-.5-.3-.6-.1-.2-.3-.4-.6-.5-.2-.2-.6-.4-1.1-.6-.4-.2-.8-.4-1-.6s-.4-.3-.6-.5c-.4-.4-.6-1-.6-1.6s0-.8.2-1.1c.2-.4.4-.7.7-.9.5-.5,1.1-.7,1.8-.7s.4,0,.6,0c.2,0,.4.1.8.3.2,0,.4.2.5.2,0,0,.2,0,.2,0,.2,0,.3-.1.3-.4h.2v2.8s-.1,0-.1,0c-.1-.4-.2-.8-.3-1s-.2-.5-.3-.7c-.2-.4-.5-.6-.8-.8-.3-.2-.6-.3-1-.3-.5,0-.9.2-1.2.5-.1.1-.2.3-.3.5,0,.2-.1.4-.1.6,0,.8.5,1.4,1.5,1.9l1,.5c.8.4,1.3.8,1.7,1.2.4.5.6,1.1.6,1.7s0,.8-.3,1.2c-.2.5-.6,1-1.1,1.3-.5.3-1.1.4-1.7.4s-1.2-.1-1.7-.4c-.3-.1-.5-.2-.5-.2,0,0-.1,0-.2,0-.2,0-.4.1-.5.3h-.2Z"/>
    <path class="st1" d="M181.6,275.6v.2c-.3,0-.5,0-.7.1-.2,0-.3.2-.4.3-.2.2-.3.4-.3.6,0,.2,0,.6,0,1.2v4c0,.6,0,1.1,0,1.4,0,.3.1.6.3.8.2.4.5.6.8.8s.7.3,1.3.3,1,0,1.4-.2c.4-.1.8-.4,1.1-.6.2-.2.3-.3.4-.5,0-.2.1-.4.2-.7,0-.2,0-.6,0-1.4v-3.9c0-.5,0-.8,0-1.1,0-.2-.2-.4-.3-.6-.1-.1-.3-.2-.4-.3-.2,0-.4,0-.7-.1v-.2h3.3v.2c-.3,0-.5,0-.7.1-.2,0-.3.2-.4.3-.1.2-.2.3-.3.6,0,.2,0,.6,0,1.1v4.5c0,.7,0,1.1-.2,1.5-.1.3-.3.6-.6.9-.7.6-1.7.9-2.9.9s-2.3-.3-2.9-.8c-.4-.4-.7-.8-.7-1.4,0-.2,0-.6,0-1.1v-4.3c0-.5,0-.8,0-1.1s-.2-.4-.3-.6c-.1-.1-.3-.2-.4-.3-.2,0-.4,0-.7-.1v-.2h4.5Z"/>
    <path class="st1" d="M195.3,285.2v-.2c.3,0,.5,0,.7-.1.2,0,.3-.2.4-.3.2-.2.3-.3.3-.6s0-.6,0-1.1v-5.2c0-.5,0-.8,0-1.1s-.2-.4-.3-.6c-.1-.1-.3-.2-.4-.3-.2,0-.4,0-.7-.1v-.2h4.6c.5,0,.8,0,.9,0,.5,0,1,.2,1.3.4.3.2.5.4.7.7.2.3.3.6.3,1,0,.6-.2,1.1-.6,1.5-.1.1-.3.3-.5.4-.2,0-.4.2-.8.3.5,0,.8.2,1.1.2.2,0,.5.2.7.4.3.2.5.5.7.9.2.4.3.8.3,1.2s0,.8-.3,1.2c-.2.4-.4.6-.7.9-.3.2-.6.3-1,.4s-.9.1-1.6.1h-5.2ZM198.3,275.8v4.2h.6c.3,0,.5,0,.8,0,.2,0,.5,0,.6-.1s.3-.1.4-.2c.2-.2.4-.4.6-.7.1-.3.2-.6.2-.9s0-.7-.2-1-.3-.6-.5-.8c-.2-.2-.4-.3-.7-.3s-.6,0-1.1,0h-.7ZM198.3,280.2v2.9c0,.4,0,.6,0,.9,0,.2.1.4.2.6.2.3.7.5,1.2.5s1.4-.2,1.8-.6.7-1,.7-1.7,0-.8-.2-1.1c-.1-.4-.3-.6-.6-.8-.4-.3-1.1-.5-2-.5h-1.3Z"/>
    <path class="st1" d="M216.6,275.6v.2c-.3,0-.5,0-.7.1-.2,0-.3.2-.4.3-.2.2-.3.4-.3.6,0,.2,0,.6,0,1.2v4c0,.6,0,1.1,0,1.4,0,.3.1.6.3.8.2.4.5.6.8.8s.7.3,1.3.3,1,0,1.4-.2c.4-.1.8-.4,1.1-.6.2-.2.3-.3.4-.5,0-.2.1-.4.2-.7,0-.2,0-.6,0-1.4v-3.9c0-.5,0-.8,0-1.1,0-.2-.2-.4-.3-.6-.1-.1-.3-.2-.4-.3-.2,0-.4,0-.7-.1v-.2h3.3v.2c-.3,0-.5,0-.7.1-.2,0-.3.2-.4.3-.1.2-.2.3-.3.6,0,.2,0,.6,0,1.1v4.5c0,.7,0,1.1-.2,1.5-.1.3-.3.6-.6.9-.7.6-1.7.9-2.9.9s-2.3-.3-2.9-.8c-.4-.4-.7-.8-.7-1.4,0-.2,0-.6,0-1.1v-4.3c0-.5,0-.8,0-1.1s-.2-.4-.3-.6c-.1-.1-.3-.2-.4-.3-.2,0-.4,0-.7-.1v-.2h4.5Z"/>
    <path class="st1" d="M233.4,280.5v2.5c0,.5,0,.8,0,1.1s.2.4.3.6c.1.1.3.2.4.3.2,0,.4.1.7.1v.2h-4.5v-.2c.3,0,.5,0,.7-.1.2,0,.3-.2.4-.3.2-.2.3-.3.3-.6s0-.6,0-1.1v-5.2c0-.5,0-.8,0-1.1s-.2-.4-.3-.6c-.1-.1-.3-.2-.4-.3-.2,0-.4,0-.7-.1v-.2h3.4c.6,0,.9,0,1.1,0,.7,0,1.3.1,1.7.3.5.2.8.5,1.1.8.3.4.4.8.4,1.3,0,.7-.3,1.3-.8,1.8-.2.1-.4.2-.6.3-.2,0-.5.2-.8.2.3.1.5.2.6.4.1,0,.2.2.3.4,0,.1.2.4.4.8.4.9.7,1.5.9,1.9.2.4.4.7.5.9.1.1.2.2.3.3.1,0,.3,0,.5.1v.2h-2.3c-.1-.3-.2-.4-.2-.5l-.5-1.1c-.3-.7-.6-1.3-.9-1.8-.3-.5-.6-.9-.8-1.1-.1,0-.3-.2-.4-.2-.1,0-.3,0-.5,0h-.3ZM233.4,280.3h.3c.6,0,1,0,1.3,0,.3,0,.5-.2.7-.4.5-.5.7-1.1.7-1.7s0-.7-.2-1c-.1-.3-.3-.6-.6-.8-.2-.2-.4-.3-.7-.3-.3,0-.7,0-1.2,0h-.3v4.5Z"/>
    <path class="st1" d="M246.9,285.2v-.2c.3,0,.5,0,.7-.1.2,0,.3-.2.4-.3.2-.2.3-.3.3-.6s0-.6,0-1.1v-5.2c0-.5,0-.8,0-1.1s-.2-.4-.3-.6c-.1-.1-.3-.2-.4-.3-.2,0-.4,0-.7-.1v-.2h4.6c.5,0,.8,0,.9,0,.5,0,1,.2,1.3.4.3.2.5.4.7.7.2.3.3.6.3,1,0,.6-.2,1.1-.6,1.5-.1.1-.3.3-.5.4-.2,0-.4.2-.8.3.5,0,.8.2,1.1.2.2,0,.5.2.7.4.3.2.5.5.7.9.2.4.3.8.3,1.2s0,.8-.3,1.2c-.2.4-.4.6-.7.9-.3.2-.6.3-1,.4s-.9.1-1.6.1h-5.2ZM249.9,275.8v4.2h.6c.3,0,.5,0,.8,0,.2,0,.5,0,.6-.1s.3-.1.4-.2c.2-.2.4-.4.6-.7.1-.3.2-.6.2-.9s0-.7-.2-1-.3-.6-.5-.8c-.2-.2-.4-.3-.7-.3s-.6,0-1.1,0h-.7ZM249.9,280.2v2.9c0,.4,0,.6,0,.9,0,.2.1.4.2.6.2.3.7.5,1.2.5s1.4-.2,1.8-.6.7-1,.7-1.7,0-.8-.2-1.1c-.1-.4-.3-.6-.6-.8-.4-.3-1.1-.5-2-.5h-1.3Z"/>
    <path class="st1" d="M289.6,278.3c.6,0,1,.2,1.4.6.4.4.6.9.6,1.4s-.2,1-.6,1.4c-.4.4-.9.6-1.4.6s-1-.2-1.4-.6c-.4-.4-.6-.9-.6-1.4s0-.6.2-.8c.1-.3.3-.5.5-.7.4-.3.8-.5,1.3-.5Z"/>
  </g>
</svg>