<?xml version="1.0" encoding="UTF-8"?>
<svg id="Layer_1" xmlns="http://www.w3.org/2000/svg" version="1.1" viewBox="0 0 775.1 168.4">
  <!-- Generator: Adobe Illustrator 29.6.0, SVG Export Plug-In . SVG Version: 2.1.1 Build 207)  -->
  <defs>
    <style>
      .st0 {
        fill: #9a8888;
      }

      .st1 {
        fill: #575756;
      }
    </style>
  </defs>
  <g>
    <path class="st0" d="M161.8,51.4c-4.2-10-10.3-19-18-26.8-7.7-7.7-16.7-13.8-26.8-18C106.6,2.2,95.6,0,84.2,0s-22.4,2.2-32.8,6.6c-10,4.2-19,10.3-26.8,18-7.7,7.7-13.8,16.7-18,26.8C2.2,61.8,0,72.8,0,84.2s2.2,22.4,6.6,32.8c4.2,10,10.3,19,18,26.8,7.7,7.7,16.7,13.8,26.8,18,10.4,4.4,21.4,6.6,32.8,6.6s22.4-2.2,32.8-6.6c10-4.2,19-10.3,26.8-18,7.7-7.7,13.8-16.7,18-26.8,4.4-10.4,6.6-21.4,6.6-32.8s-2.2-22.4-6.6-32.8ZM84.2,164.2c-44.1,0-80-35.9-80-80S40.1,4.2,84.2,4.2s80,35.9,80,80-35.9,80-80,80Z"/>
    <path class="st0" d="M158.8,84.2c0-10.1-2-19.8-5.9-29-3.8-8.9-9.1-16.9-16-23.7-6.8-6.8-14.8-12.2-23.7-16-9.2-3.9-19-5.9-29-5.9s-19.8,2-29,5.9c-8.9,3.8-16.9,9.1-23.7,16-6.8,6.8-12.2,14.8-16,23.7-3.9,9.2-5.9,19-5.9,29s2,19.8,5.9,29c3.8,8.9,9.1,16.9,16,23.7,6.8,6.8,14.8,12.2,23.7,16,9.2,3.9,19,5.9,29,5.9s19.8-2,29-5.9c8.9-3.8,16.9-9.1,23.7-16,6-6,10.8-12.8,14.5-20.4.3-.3.5-.7.5-1.1.3-.8.7-1.5,1-2.3,3.9-9.2,5.9-19,5.9-29h0ZM127.7,102s-.2,0-.3-.2l-4.5-3.3c.4-.3.7-.5,1.1-.6.5-.2,1.1-.3,1.8-.4l1.9,4.6h0ZM135,102.5c-.7-.2-1.5-.2-2.2-.2h-1.2l-2.2-5.4c1.2-.4,1.9-1.1,2.6-1.8.3-.2.5-.4.7-.6h.1c0,0,3.8,9.1,3.8,9.1-.4-.4-1-.8-1.7-1.1h0ZM146.1,112l-3.4-3-6.9-16.9,2.8-2.3,9.3,23.5c-.7-.3-1.2-.8-1.8-1.3h0ZM108.3,91.9l-5.6-4.1c-.7-.5-1.6-.8-2.5-.8h0c-.2,0-1.6,0-2.5.8l-7.6,5.6-6.6,1.6c-1.2.3-2.3,1-2.8,1.8l-3.4,5.3-7.7-6.2c-.4-.3-.8-.5-1.3-.7h-.1c-.5,0-1-.2-1.5-.2h-5.6c-1.3-3-2.1-7-2.1-11,0-14,11.4-25.4,25.4-25.4s25.4,11.4,25.4,25.4-.4,5.3-1.2,7.9h-.3ZM24.6,97c1.4-.4,2.3-1.2,3.1-1.9l.3-.3,20.1,49.9c-2.2-1.3-4.4-2.8-6.5-4.4l-17.6-43.2c.2,0,.3,0,.5,0h0ZM37.6,87.9c.2,0,.4.2.6.4,0,0,.2.2.3.2h.2c.6.5,1.2.9,1.9,1.3.4.2.8.4,1.1.6.9.5,1.8,1,2.9,1.4l25.2,61.4c-2.2-.5-4.3-1-6.4-1.7l-26-63.7h.3-.1ZM48.7,92.5c.6,0,1.1,0,1.7,0h.7c.5,0,1.6,0,1.9.2,0,0,1.2,1.3,2.3,2.4l24.1,59.2c-1.9-.1-3.7-.3-5.6-.6l-25.2-61.4h.1ZM74.2,104.6s.1.2.2.3c.7.5,1.8.8,3,.9l-2.5,5.9-3.9-9.7s3.2,2.6,3.2,2.6ZM84.1,99l.3-.5c.2-.2,1.4-.4,1.9-.5.3,0,.5,0,.7,0h0c.7-.2,1.5-.3,2.2-.5l-10.2,24.3-2.2-5.3,7.3-17.3h0ZM93.9,95.4c.6-.4,1.1-.8,1.6-1.2.4-.3.7-.6,1.1-.9.7-.5,1.2-1.1,1.7-1.6v-.2c.2,0,.3-.2.4-.3.2-.2.3-.4.5-.5s.3-.2.4-.2c.3,0,.8.2,1.3.6l-17.5,41.5-2.6-6.4,13-30.9h.1ZM103.9,93.4l4.4,3.2h-.2c0,0-20,47.3-20,47.3l-2.7-6.6s18.5-43.9,18.5-43.9ZM90,148.6l21-49.9c.6.4,1.3.7,2.1.9.8,0,1.6,0,2.3,0h.9l-22.8,54.2c-.4,0-.9.1-1.3.2l-2.3-5.5h.1ZM119.8,100.9c1.3.9,2.2,1.4,2.9,1.8.5.3.9.6,1.4.9l-20.3,48.3c-2,.6-4,1.1-6.1,1.5l22.1-52.4h0ZM135.6,107.8l3.5,3.1-12.4,29.4c-2.1,1.6-4.4,3.1-6.7,4.5l15.6-37h0ZM141.8,87.8h.2c.2,0,.4.2.6.4,0,0,.2.2.3.2h.2c.6.5,1.2.9,1.9,1.3.4.2.8.4,1.1.6l.6.3,5.3,13c-.5,1.8-1.1,3.6-1.8,5.4l-8.3-21.2h-.1ZM151.1,92.3c.9,0,1.7.2,2.5.3.2,0,.4,0,.6-.2h0c-.2,1.8-.5,3.6-.8,5.4l-2.2-5.5h-.1ZM84.2,13.8c38.8,0,70.4,31.6,70.4,70.4s0,3.5-.2,5.2c-.1,0-.3-.2-.5-.2l-2.6-.2-8.1-4c-1-.5-2.4-.4-2.5-.4-.9,0-1.8.4-2.4.9l-9,7.2c-.2.2-.4.3-.6.5-.2.2-.4.3-.5.5-.6.5-1.7.6-2.5.7h-.5c-1,0-2,0-2.9.5-.9.3-1.6.9-2.2,1.3l-.4.4c-.9-.2-1.9-.2-2.8,0h-.5c-.8,0-1.9,0-2.5-.4-.2,0-.4-.3-.6-.5-.2-.2-.4-.3-.6-.5l-1.1-.8c1.2-3.2,1.8-6.6,1.8-10.1,0-16-13-28.9-28.9-28.9s-28.9,13-28.9,28.9.2,4.1.6,6.2c-.6-.3-1.3-.6-2.2-.7l-6.7-.6-8.1-4c-1-.5-2.4-.4-2.5-.4-.9,0-1.8.4-2.4.9l-9,7.2c-.2.2-.4.3-.6.5s-.4.3-.5.5c-.6.5-1.7.6-2.5.7h-.5c-1,0-2,0-2.9.5-.9.3-1.6.9-2.2,1.3l-.8.6c-.7-4.1-1.1-8.3-1.1-12.5C14.2,45.6,45.8,14,84.6,14l-.4-.2ZM26.5,124.5l-10-24.5c.6-.5,1.2-.9,1.8-1.4.5-.3.9-.6,1.4-.8.2,0,.5-.2.7-.2l15.4,37.8c-3.5-3.3-6.6-6.9-9.4-10.8h0ZM53.1,147.4l-22.1-54.9,3.3-2.6,24.5,60.1c-1.9-.8-3.9-1.6-5.7-2.5h0ZM83.4,154.6l-22.9-56.2h5.2c0,0,22.9,56.1,22.9,56.1-1.4,0-2.9.1-4.4.1s-.6,0-.8,0ZM108.3,150.4l18.8-44.6c.2,0,.4.3.6.5.9.7,2.3.6,3.7.4h.9l-17.2,41c-2.2,1.1-4.4,2-6.7,2.9v-.2ZM132.7,135.2l9.2-21.9,1.5,1.3h.1c.5.6,1.2.9,1.8,1.2.5.2.9.4,1.3.5-3.6,7-8.4,13.2-14,18.6v.3Z"/>
    <path class="st0" d="M111.4,56l15.4-14c.9-.9.9-2.3,0-3.1-.9-.9-2.5-.9-3.4,0h0l-15.4,14c-.9.9-.9,2.3,0,3.1.9.9,2.5.9,3.4,0Z"/>
    <path class="st0" d="M56.6,56c.9.9,2.5.9,3.4,0s.9-2.3,0-3.1l-15.4-14c-.9-.9-2.5-.9-3.4,0s-.9,2.3,0,3.1l15.4,14Z"/>
    <path class="st0" d="M67.9,48.2c.5,1.1,1.9,1.7,3.2,1.2,1.2-.5,1.8-1.8,1.3-2.9l-5.6-12.2c-.5-1.1-1.9-1.7-3.2-1.2-1.2.5-1.8,1.8-1.3,2.9l5.6,12.2Z"/>
    <path class="st0" d="M115.3,66.1c.5,1.1,1.9,1.7,3.2,1.2l13.4-5.1c1.2-.5,1.8-1.8,1.3-2.9s-1.9-1.7-3.2-1.2l-13.4,5.1c-1.2.5-1.8,1.8-1.3,2.9Z"/>
    <path class="st0" d="M36.1,62.2l13.4,5.1c1.2.5,2.7,0,3.2-1.2.5-1.1,0-2.4-1.3-2.9l-13.4-5.1c-1.2-.5-2.7,0-3.2,1.2-.5,1.1,0,2.4,1.3,2.9Z"/>
    <path class="st0" d="M97,49.4c1.2.5,2.7,0,3.2-1.2l5.6-12.2c.5-1.1,0-2.4-1.3-2.9-1.2-.5-2.7,0-3.2,1.2l-5.6,12.2c-.5,1.1,0,2.4,1.3,2.9Z"/>
    <path class="st0" d="M84,47c1.3,0,2.4-1,2.4-2.2v-21.2c0-1.2-1.1-2.2-2.4-2.2s-2.4,1-2.4,2.2v21.2c0,1.2,1.1,2.2,2.4,2.2Z"/>
    <path class="st0" d="M24.4,80.1h23.2c1.3,0,2.4-1,2.4-2.2s-1.1-2.2-2.4-2.2h-23.2c-1.3,0-2.4,1-2.4,2.2s1.1,2.2,2.4,2.2Z"/>
    <path class="st0" d="M117.9,77.9c0,1.2,1.1,2.2,2.4,2.2h23.2c1.3,0,2.4-1,2.4-2.2s-1.1-2.2-2.4-2.2h-23.2c-1.3,0-2.4,1-2.4,2.2Z"/>
  </g>
  <g>
    <g>
      <path class="st1" d="M196,111.5c-.8,0-1.2-.4-1.2-1.2v-7.3c0-.8.4-1.2,1.2-1.2h2.9c6.9,0,10.2-3.5,10.2-10.8v-55.2c0-.8.4-1.2,1.2-1.2h8.1c.8,0,1.2.4,1.2,1.2v54.8c0,6.9-1.7,12-5.2,15.6-3.5,3.5-8.5,5.4-15.2,5.4h-3.3Z"/>
      <path class="st1" d="M245.8,111.5c-.8,0-1.2-.4-1.2-1.2v-7.3c0-.8.4-1.2,1.2-1.2h15.2c1.7,0,3.3,0,4.8-.6,1.5-.4,2.7-1,3.7-1.9s1.9-2.1,2.5-3.7.8-3.5.8-5.8v-3.3h-13.5c-3.7,0-7.1-.4-10.2-1.2-2.9-.8-5.6-2.3-7.7-4.4s-3.7-4.6-4.8-7.9-1.7-7.3-1.7-12.3.6-8.9,1.9-12.7c1.2-3.5,3.1-6.6,5.4-8.9s4.8-4.2,7.9-5.2c2.9-1,6-1.7,9.3-1.7,7.5,0,13.5,2.1,17.6,6.4s6.4,11.4,6.4,21.2v16.6h8.7c1.7,0,2.9.4,3.7,1,.8.6,1.2,1.9,1.2,3.5s-.4,3.5-1.2,4.2c-.8.6-2.1,1-3.9,1h-8.7v3.1c0,3.9-.6,7.3-1.7,10.2-1,2.7-2.5,5-4.4,6.9-1.9,1.9-4.2,3.1-6.9,3.9s-5.6,1.2-8.9,1.2h-15.8ZM259.5,41.9c-4.2,0-7.7,1.7-10.2,5-2.5,3.3-3.7,7.9-3.7,13.5s1.2,10.2,3.5,12.5c2.5,2.3,6,3.3,10.8,3.3h12.9v-16.6c0-5.6-1-10-3.1-13.1s-5.4-4.8-10.2-4.8v.2Z"/>
      <path class="st1" d="M293.4,86.2c-1.7,0-2.9-.2-3.7-.8-.8-.6-1.2-1.9-1.2-3.5s.4-3.5,1.2-4.4c.8-.8,2.1-1,3.9-1h7.9c2.1,0,3.7-.4,4.6-1.5s1.5-2.7,1.5-5.2v-34.1c0-.8.4-1.2,1.2-1.2h8.1c.8,0,1.2.4,1.2,1.2v32c0,2.9,1,5,3.1,6.4,2.1,1.5,4.8,2.1,8.3,2.1h1.5c1.7,0,2.9.4,3.7,1s1.2,1.9,1.2,3.5-.4,3.5-1.2,4.2-2.1,1-3.9,1h-2.7c-2.7,0-5-.6-7.1-1.7s-3.5-2.7-4.8-5c-2.1,4.4-6.4,6.6-13.3,6.6h-10l.4.2ZM308.3,21.8c-.8,0-1.2-.4-1.2-1.2v-9.3c0-.8.4-1.2,1.2-1.2h8.7c.8,0,1.2.4,1.2,1.2v9.3c0,.8-.4,1.2-1.2,1.2h-8.7Z"/>
      <path class="st1" d="M329.9,86.2c-1.7,0-2.9-.2-3.7-.8-.8-.6-1.2-1.9-1.2-3.5s.4-3.5,1.2-4.4c.8-.8,2.1-1,3.9-1h7.9c2.1,0,3.7-.4,4.6-1.5s1.5-2.7,1.5-5.2V1.5c0-.8.4-1.2,1.2-1.2h8.1c.8,0,1.2.4,1.2,1.2v68.9c0,5.4-1,9.6-3.3,12s-6,3.9-11.4,3.9h-10v-.2Z"/>
      <path class="st1" d="M383.1,84.9c0,.8-.4,1.2-1.2,1.2h-8.1c-.8,0-1.2-.4-1.2-1.2V1.2c0-.8.4-1.2,1.2-1.2h8.1c.8,0,1.2.4,1.2,1.2v83.7Z"/>
      <path class="st1" d="M478.2,67.3c2.7,1,5.4,2.1,7.9,3.1s5,2.1,7.5,2.9c2.5.8,4.8,1.7,7.1,2.1,2.3.6,4.8.8,7.3.8h10.2c1.7,0,2.9.2,3.7.8.8.6,1.2,1.9,1.2,3.5s-.4,3.5-1.2,4.4-2.1,1-3.9,1h-8.9c.4.6.8,1.9,1.5,3.3.6,1.7.8,3.3.8,5.2s-.4,3.9-1.2,6c-.8,2.1-2.1,3.7-3.9,5.4s-4.4,2.9-7.3,3.9c-3.1,1-6.9,1.5-11.2,1.5h-29.7c-10,0-17.4-2.5-22.6-7.5-5.2-5-7.7-11.6-7.7-20.3s.8-9.8,2.5-14.3c1.7-4.6,3.5-8.5,5.8-11.6.4-.6.8-.6,1.9,0l7.1,3.7c.6.4.8,1,.4,1.7-1.5,2.3-2.9,5.2-4.4,8.7-1.5,3.5-2.1,7.1-2.1,11s.6,6.4,1.7,8.7c1,2.5,2.7,4.4,4.6,5.8s4.2,2.5,6.6,3.1,5.2,1,7.9,1h28c5,0,8.5-.8,10.6-2.3,2.1-1.5,2.9-3.3,2.9-5.4s-.6-3.5-1.7-4.8c-1-1.5-2.9-2.7-5-3.7-2.3-1-5-2.3-8.3-3.5-3.3-1.2-7.1-2.5-11.4-4.2-.8-.2-1-.8-.8-1.5l2.7-7.7c.2-.8.8-1,1.5-.8l.2-.2ZM457.4,133.3c-.8,0-1.2-.4-1.2-1.2v-9.3c0-.8.4-1.2,1.2-1.2h8.7c.8,0,1.2.4,1.2,1.2v9.3c0,.8-.4,1.2-1.2,1.2h-8.7ZM472.8,133.3c-.8,0-1.2-.4-1.2-1.2v-9.3c0-.8.4-1.2,1.2-1.2h8.7c.8,0,1.2.4,1.2,1.2v9.3c0,.8-.4,1.2-1.2,1.2h-8.7Z"/>
      <path class="st1" d="M547.7,41.9c-2.9,0-5.6.6-7.9,1.9-2.5,1.2-4.6,2.7-6.4,4.8-.4.6-1,.6-1.9,0l-5.6-4.6c-.8-.6-.8-1.2-.4-1.9,2.3-2.9,5.4-5.4,8.7-7.3,3.5-1.9,7.9-2.9,12.9-2.9s10.6.8,14.3,2.7c3.7,1.9,6.6,4.2,8.7,7.1s3.7,6.4,4.6,10.2c.8,3.9,1.2,7.9,1.2,12s-.4,7.7-1,10.6c-.6,2.7-1.9,5-3.3,6.6-1.5,1.7-3.3,2.9-5.6,3.5-2.3.6-5,1-8.1,1h-39.9c-3.3,0-5-1.7-5-5s.4-3.5,1.2-3.9c.8-.6,2.1-.8,3.9-.8h35.9c2.3,0,4.4,0,5.6-.6,1.5-.4,2.5-1,3.3-1.9.8-.8,1.2-2.1,1.5-3.7.2-1.7.4-3.5.4-5.8,0-3.3-.2-6.2-.8-9.1-.6-2.7-1.5-5.2-2.9-7.1-1.2-2.1-3.1-3.5-5.2-4.6-2.3-1-5-1.7-8.3-1.7v.4Z"/>
      <path class="st1" d="M602.7,84.9c0,.8-.4,1.2-1.2,1.2h-8.1c-.8,0-1.2-.4-1.2-1.2V1.2c0-.8.4-1.2,1.2-1.2h8.1c.8,0,1.2.4,1.2,1.2v83.7Z"/>
      <path class="st1" d="M629.3,111.5c-.8,0-1.2-.4-1.2-1.2v-7.3c0-.8.4-1.2,1.2-1.2h15.2c1.7,0,3.3,0,4.8-.6,1.5-.4,2.7-1,3.7-1.9s1.9-2.1,2.5-3.7.8-3.5.8-5.8v-3.3h-13.5c-3.7,0-7.1-.4-10.2-1.2-2.9-.8-5.6-2.3-7.7-4.4s-3.7-4.6-4.8-7.9c-1-3.3-1.7-7.3-1.7-12.3s.6-8.9,1.9-12.7c1.2-3.5,3.1-6.6,5.4-8.9s4.8-4.2,7.9-5.2c2.9-1,6-1.7,9.3-1.7,7.5,0,13.5,2.1,17.6,6.4s6.4,11.4,6.4,21.2v16.6h8.7c1.7,0,2.9.4,3.7,1,.8.6,1.2,1.9,1.2,3.5s-.4,3.5-1.2,4.2c-.8.6-2.1,1-3.9,1h-8.7v3.1c0,3.9-.6,7.3-1.7,10.2-1,2.7-2.5,5-4.4,6.9-1.9,1.9-4.2,3.1-6.9,3.9s-5.6,1.2-8.9,1.2h-15.8ZM643,41.9c-4.2,0-7.7,1.7-10.2,5-2.5,3.3-3.7,7.9-3.7,13.5s1.2,10.2,3.5,12.5c2.5,2.3,6,3.3,10.8,3.3h12.9v-16.6c0-5.6-1-10-3.1-13.1s-5.4-4.8-10.2-4.8v.2Z"/>
      <path class="st1" d="M676,86.2c-1.7,0-2.9-.2-3.7-.8-.8-.6-1.2-1.9-1.2-3.5s.4-3.5,1.2-4.4,2.1-1,3.9-1h7.9c2.1,0,3.7-.4,4.6-1.5s1.5-2.7,1.5-5.2v-34.1c0-.8.4-1.2,1.2-1.2h8.1c.8,0,1.2.4,1.2,1.2v4.4c4.2-2.3,8.7-4.2,13.9-5.6,5-1.5,10.2-2.3,15.6-2.3s10.8.8,14.7,2.5c3.9,1.7,7.1,3.7,9.3,6.4s3.9,6,5,9.6c.8,3.7,1.5,7.5,1.5,11.6s-.4,8.3-1,11.4-1.9,5.6-3.3,7.5c-1.5,1.9-3.5,3.3-6,4.2-2.5.8-5.4,1.2-8.7,1.2h-42.6c-2.1,0-3.5-.6-4.4-1.7-2.1,1-5,1.7-8.5,1.7h-10l-.2-.4ZM729.4,41.9c-2.5,0-5.2.2-7.7.6-2.7.4-5.2,1-7.7,1.9s-4.8,1.7-7.1,2.5-4.4,1.9-6.2,2.7v20.3c0,2.1-.2,4.2-.6,6h37.6c2.3,0,4.4-.2,5.8-.6,1.5-.4,2.7-1.2,3.5-2.3.8-1,1.5-2.5,1.7-4.4.2-1.9.4-4.4.4-7.3s-.4-5.8-1-8.3-1.7-4.6-3.3-6.2c-1.5-1.7-3.5-2.9-6-3.9-2.5-.8-5.6-1.2-9.6-1.2l.2.2ZM725.7,21.8c-.8,0-1.2-.4-1.2-1.2v-9.3c0-.8.4-1.2,1.2-1.2h8.7c.8,0,1.2.4,1.2,1.2v9.3c0,.8-.4,1.2-1.2,1.2h-8.7Z"/>
    </g>
    <g>
      <path class="st1" d="M191.2,152.8c1.2,0,2.1.4,2.9,1.2s1.2,1.9,1.2,2.9-.4,2.1-1.2,2.9c-.8.8-1.9,1.2-2.9,1.2s-2.1-.4-2.9-1.2-1.2-1.9-1.2-2.9,0-1.2.4-1.7c.2-.6.6-1,1-1.5.8-.6,1.7-1,2.7-1Z"/>
      <path class="st1" d="M259.9,167.2h-9.6v-.4c.8,0,1.5-.2,1.9-.4.6-.4.8-.8.8-1.7s0-1-.4-1.7v-.6c-.2,0-1.7-3.5-1.7-3.5h-6.4l-.8,2.1-.4.8c-.4,1-.6,1.9-.6,2.5s0,.6.2,1c0,.4.4.6.6.8.4.2.8.4,1.5.4v.4h-6.6v-.4c.4,0,1,0,1.5-.4.4-.2.8-.6,1.2-1,.4-.4.6-.8.8-1.5s.6-1.7,1.2-2.9l5.4-13.9h.8l6.4,15.4c.4,1.2.8,2.1,1.2,2.5.2.4.6.8.8,1,.2,0,.4.2.8.4.2,0,.8,0,1.5.2v.4l-.2.4ZM250.6,158.4l-3.1-7.7-2.9,7.7h6Z"/>
      <path class="st1" d="M279,149.9v15c0,.4.4.8.6,1.2.2.2.6.4.8.6.4,0,.8,0,1.5.2v.4h-6.9v-.4c.6,0,1,0,1.5-.2.4,0,.6-.4.8-.6.2-.4.4-.6.6-1.2v-15.4c0-.4-.4-.8-.6-1.2-.2-.2-.6-.4-.8-.6-.4,0-.8,0-1.5-.2v-.4h5.6l11.8,15.2v-12.9c0-.6-.4-.8-.6-1.2-.2-.2-.6-.4-.8-.6-.4,0-.8,0-1.5-.2v-.4h6.9v.4c-1,0-1.7.2-2.3.8-.2.4-.4.6-.6,1.2s0,1.2,0,2.3v15.4h-.6l-13.7-17.4-.2.4Z"/>
      <path class="st1" d="M339,149.9v15c0,.4.4.8.6,1.2.2.2.6.4.8.6.4,0,.8,0,1.5.2v.4h-6.9v-.4c.6,0,1,0,1.5-.2.4,0,.6-.4.8-.6.2-.4.4-.6.6-1.2v-15.4c0-.4-.4-.8-.6-1.2-.2-.2-.6-.4-.8-.6-.4,0-.8,0-1.5-.2v-.4h5.6l11.8,15.2v-12.9c0-.6-.4-.8-.6-1.2-.2-.2-.6-.4-.8-.6-.4,0-.8,0-1.5-.2v-.4h6.9v.4c-1,0-1.7.2-2.3.8-.2.4-.4.6-.6,1.2s0,1.2,0,2.3v15.4h-.6l-13.7-17.4-.2.4Z"/>
      <path class="st1" d="M373.7,157.4c0-1.7.4-3.1,1-4.6s1.7-2.7,3.1-3.7c1-.8,2.1-1.5,3.3-1.9s2.3-.6,3.5-.6,2.9.4,4.4,1,2.7,1.7,3.7,2.7c1.7,1.9,2.5,4.2,2.5,6.6s-.2,2.5-.6,3.5c-.4,1.2-1,2.3-1.9,3.1-1,1.2-2.3,2.1-3.7,2.7-1.5.6-2.9,1-4.6,1s-3.1-.4-4.4-1c-1.5-.6-2.7-1.5-3.7-2.7-.8-.8-1.5-1.9-1.9-3.1-.4-1.2-.6-2.3-.6-3.5l-.2.4ZM377.2,157.6c0,2.9.8,5.2,2.3,7.3.6.8,1.5,1.5,2.3,1.9s1.7.6,2.7.6,1.9,0,2.7-.6c.8-.4,1.5-1,2.3-1.9,1.5-1.9,2.3-4.4,2.3-7.3s-.2-3.1-.6-4.6-1-2.5-1.9-3.5c-.6-.8-1.2-1.5-2.1-1.7-.8-.4-1.7-.6-2.7-.6s-1.9,0-2.7.6c-.8.4-1.5,1-2.1,1.7-.8,1-1.5,2.1-1.9,3.5-.4,1.5-.6,2.9-.6,4.6h0Z"/>
      <path class="st1" d="M421.7,147.2v.4c-.6,0-1,0-1.5.2-.4,0-.6.4-.8.6-.4.4-.6.8-.6,1.2v13.7c0,.6.2,1.2.6,1.7.4.8,1,1.2,1.7,1.7s1.5.6,2.7.6,2.1,0,2.9-.4c.8-.2,1.7-.8,2.3-1.2.4-.4.6-.6.8-1,0-.4.2-.8.4-1.5v-13.3c0-.4-.4-.8-.6-1.2-.2-.2-.6-.4-.8-.6-.4,0-.8,0-1.5-.2v-.4h6.9v.4c-.6,0-1,0-1.5.2-.4,0-.6.4-.8.6-.2.4-.4.6-.6,1.2v11.6c0,1.5,0,2.3-.4,3.1-.2.6-.6,1.2-1.2,1.9-1.5,1.2-3.5,1.9-6,1.9s-4.8-.6-6-1.7c-.8-.8-1.5-1.7-1.5-2.9v-13.5c0-.6-.4-.8-.6-1.2-.2-.2-.6-.4-.8-.6-.4,0-.8,0-1.5-.2v-.4h9.3l-.8-.6Z"/>
      <path class="st1" d="M456.4,157.4v7.5c0,.6.4.8.6,1.2.2.2.6.4.8.6.4,0,.8.2,1.5.2v.4h-9.3v-.4c.6,0,1,0,1.5-.2.4,0,.6-.4.8-.6.4-.4.6-.6.6-1.2v-15.4c0-.6-.4-.8-.6-1.2-.2-.2-.6-.4-.8-.6-.4,0-.8,0-1.5-.2v-.4h9.3c1.5,0,2.7.2,3.5.6,1,.4,1.7,1,2.3,1.7.6.8.8,1.7.8,2.7s-.6,2.7-1.7,3.7c-.4.2-.8.4-1.2.6-.4,0-1,.4-1.7.4.6.2,1,.4,1.2.8.2,0,.4.4.6.8,0,.2.4.8.8,1.7.8,1.9,1.5,3.1,1.9,3.9s.8,1.5,1,1.9c.2.2.4.4.6.6.2,0,.6,0,1,.2v.4h-4.8c-.2-.6-.4-.8-.4-1l-1-2.3c-.6-1.5-1.2-2.7-1.9-3.7-.6-1-1.2-1.9-1.7-2.3-.2,0-.6-.4-.8-.4h-1.7,0ZM456.4,157h3.3c.6,0,1-.4,1.5-.8,1-1,1.5-2.3,1.5-3.5s0-1.5-.4-2.1c-.2-.6-.6-1.2-1.2-1.7-.4-.4-.8-.6-1.5-.6h-3.1v9.3-.6Z"/>
      <path class="st1" d="M507.6,167.2v-6h.4c.4,1.5.8,2.7,1.5,3.7,1,1.7,2.5,2.5,3.9,2.5s2.1-.4,2.7-1c.8-.8,1-1.7,1-2.9s0-1-.2-1.5c0-.4-.4-1-.6-1.2-.2-.4-.6-.8-1.2-1-.4-.4-1.2-.8-2.3-1.2-.8-.4-1.7-.8-2.1-1.2s-.8-.6-1.2-1c-.8-.8-1.2-2.1-1.2-3.3s0-1.7.4-2.3c.4-.8.8-1.5,1.5-1.9,1-1,2.3-1.5,3.7-1.5s.8,0,1.2,0,.8.2,1.7.6c.4,0,.8.4,1,.4h.4c.4,0,.6-.2.6-.8h.4v5.8h-.2c-.2-.8-.4-1.7-.6-2.1s-.4-1-.6-1.5c-.4-.8-1-1.2-1.7-1.7-.6-.4-1.2-.6-2.1-.6s-1.9.4-2.5,1c-.2.2-.4.6-.6,1,0,.4-.2.8-.2,1.2,0,1.7,1,2.9,3.1,3.9l2.1,1c1.7.8,2.7,1.7,3.5,2.5.8,1,1.2,2.3,1.2,3.5s0,1.7-.6,2.5c-.4,1-1.2,2.1-2.3,2.7s-2.3.8-3.5.8-2.5-.2-3.5-.8c-.6-.2-1-.4-1-.4h-.4c-.4,0-.8.2-1,.6h-.6Z"/>
      <path class="st1" d="M721.3,167.2v-6h.4c.4,1.5.8,2.7,1.5,3.7,1,1.7,2.5,2.5,3.9,2.5s2.1-.4,2.7-1,1-1.7,1-2.9,0-1-.2-1.5c0-.4-.4-1-.6-1.2-.2-.4-.6-.8-1.2-1-.4-.4-1.2-.8-2.3-1.2-.8-.4-1.7-.8-2.1-1.2s-.8-.6-1.2-1c-.8-.8-1.2-2.1-1.2-3.3s0-1.7.4-2.3c.4-.8.8-1.5,1.5-1.9,1-1,2.3-1.5,3.7-1.5s.8,0,1.2,0,.8.2,1.7.6c.4,0,.8.4,1,.4h.4c.4,0,.6-.2.6-.8h.4v5.8h-.2c-.2-.8-.4-1.7-.6-2.1s-.4-1-.6-1.5c-.4-.8-1-1.2-1.7-1.7-.6-.4-1.2-.6-2.1-.6s-1.9.4-2.5,1c-.2.2-.4.6-.6,1,0,.4-.2.8-.2,1.2,0,1.7,1,2.9,3.1,3.9l2.1,1c1.7.8,2.7,1.7,3.5,2.5.8,1,1.2,2.3,1.2,3.5s0,1.7-.6,2.5c-.4,1-1.2,2.1-2.3,2.7s-2.3.8-3.5.8-2.5-.2-3.5-.8c-.6-.2-1-.4-1-.4h-.4c-.4,0-.8.2-1,.6h-.6Z"/>
      <path class="st1" d="M546.7,147.2v.4c-.6,0-1,0-1.5.2-.4,0-.6.4-.8.6-.4.4-.6.8-.6,1.2v13.7c0,.6.2,1.2.6,1.7.4.8,1,1.2,1.7,1.7s1.5.6,2.7.6,2.1,0,2.9-.4c.8-.2,1.7-.8,2.3-1.2.4-.4.6-.6.8-1,0-.4.2-.8.4-1.5v-13.3c0-.4-.4-.8-.6-1.2-.2-.2-.6-.4-.8-.6-.4,0-.8,0-1.5-.2v-.4h6.9v.4c-.6,0-1,0-1.5.2-.4,0-.6.4-.8.6-.2.4-.4.6-.6,1.2v11.6c0,1.5,0,2.3-.4,3.1-.2.6-.6,1.2-1.2,1.9-1.5,1.2-3.5,1.9-6,1.9s-4.8-.6-6-1.7c-.8-.8-1.5-1.7-1.5-2.9v-13.5c0-.6-.4-.8-.6-1.2-.2-.2-.6-.4-.8-.6-.4,0-.8,0-1.5-.2v-.4h9.3l-.8-.6Z"/>
      <path class="st1" d="M575.1,167.2v-.4c.6,0,1,0,1.5-.2.4,0,.6-.4.8-.6.4-.4.6-.6.6-1.2v-15.4c0-.6-.4-.8-.6-1.2-.2-.2-.6-.4-.8-.6-.4,0-.8,0-1.5-.2v-.4h11.4c1,0,2.1.4,2.7.8.6.4,1,.8,1.5,1.5.4.6.6,1.2.6,2.1,0,1.2-.4,2.3-1.2,3.1-.2.2-.6.6-1,.8-.4,0-.8.4-1.7.6,1,0,1.7.4,2.3.4s1,.4,1.5.8c.6.4,1,1,1.5,1.9s.6,1.7.6,2.5,0,1.7-.6,2.5c-.4.8-.8,1.2-1.5,1.9-.6.4-1.2.6-2.1.8s-1.9.2-3.3.2h-10.8l.2.4ZM581.4,147.6v8.7h2.9c.4,0,1,0,1.2-.2s.6-.2.8-.4c.4-.4.8-.8,1.2-1.5.2-.6.4-1.2.4-1.9s0-1.5-.4-2.1-.6-1.2-1-1.7c-.4-.4-.8-.6-1.5-.6h-3.7v-.4ZM581.4,156.8v7.9c0,.4.2.8.4,1.2.4.6,1.5,1,2.5,1s2.9-.4,3.7-1.2,1.5-2.1,1.5-3.5,0-1.7-.4-2.3c-.2-.8-.6-1.2-1.2-1.7-.8-.6-2.3-1-4.2-1h-2.7l.4-.4Z"/>
      <path class="st1" d="M619.4,147.2v.4c-.6,0-1,0-1.5.2-.4,0-.6.4-.8.6-.4.4-.6.8-.6,1.2v13.7c0,.6.2,1.2.6,1.7.4.8,1,1.2,1.7,1.7s1.5.6,2.7.6,2.1,0,2.9-.4c.8-.2,1.7-.8,2.3-1.2.4-.4.6-.6.8-1,0-.4.2-.8.4-1.5v-13.3c0-.4-.4-.8-.6-1.2-.2-.2-.6-.4-.8-.6-.4,0-.8,0-1.5-.2v-.4h6.9v.4c-.6,0-1,0-1.5.2-.4,0-.6.4-.8.6-.2.4-.4.6-.6,1.2v11.6c0,1.5,0,2.3-.4,3.1-.2.6-.6,1.2-1.2,1.9-1.5,1.2-3.5,1.9-6,1.9s-4.8-.6-6-1.7c-.8-.8-1.5-1.7-1.5-2.9v-13.5c0-.6-.4-.8-.6-1.2-.2-.2-.6-.4-.8-.6-.4,0-.8,0-1.5-.2v-.4h9.3l-.8-.6Z"/>
      <path class="st1" d="M654.2,157.4v7.5c0,.6.4.8.6,1.2.2.2.6.4.8.6.4,0,.8.2,1.5.2v.4h-9.3v-.4c.6,0,1,0,1.5-.2.4,0,.6-.4.8-.6.4-.4.6-.6.6-1.2v-15.4c0-.6-.4-.8-.6-1.2-.2-.2-.6-.4-.8-.6-.4,0-.8,0-1.5-.2v-.4h9.3c1.5,0,2.7.2,3.5.6,1,.4,1.7,1,2.3,1.7.6.8.8,1.7.8,2.7s-.6,2.7-1.7,3.7c-.4.2-.8.4-1.2.6-.4,0-1,.4-1.7.4.6.2,1,.4,1.2.8.2,0,.4.4.6.8,0,.2.4.8.8,1.7.8,1.9,1.5,3.1,1.9,3.9s.8,1.5,1,1.9c.2.2.4.4.6.6.2,0,.6,0,1,.2v.4h-4.8c-.2-.6-.4-.8-.4-1l-1-2.3c-.6-1.5-1.2-2.7-1.9-3.7-.6-1-1.2-1.9-1.7-2.3-.2,0-.6-.4-.8-.4h-1.7,0ZM654.2,157h3.3c.6,0,1-.4,1.5-.8,1-1,1.5-2.3,1.5-3.5s0-1.5-.4-2.1c-.2-.6-.6-1.2-1.2-1.7-.4-.4-.8-.6-1.5-.6h-3.1v9.3-.6Z"/>
      <path class="st1" d="M682.3,167.2v-.4c.6,0,1,0,1.5-.2.4,0,.6-.4.8-.6.4-.4.6-.6.6-1.2v-15.4c0-.6-.4-.8-.6-1.2-.2-.2-.6-.4-.8-.6-.4,0-.8,0-1.5-.2v-.4h11.4c1,0,2.1.4,2.7.8.6.4,1,.8,1.5,1.5.4.6.6,1.2.6,2.1,0,1.2-.4,2.3-1.2,3.1-.2.2-.6.6-1,.8-.4,0-.8.4-1.7.6,1,0,1.7.4,2.3.4s1,.4,1.5.8c.6.4,1,1,1.5,1.9s.6,1.7.6,2.5,0,1.7-.6,2.5c-.4.8-.8,1.2-1.5,1.9-.6.4-1.2.6-2.1.8s-1.9.2-3.3.2h-10.8l.2.4ZM688.5,147.6v8.7h2.9c.4,0,1,0,1.2-.2s.6-.2.8-.4c.4-.4.8-.8,1.2-1.5.2-.6.4-1.2.4-1.9s0-1.5-.4-2.1-.6-1.2-1-1.7c-.4-.4-.8-.6-1.5-.6h-3.7v-.4ZM688.5,156.8v7.9c0,.4.2.8.4,1.2.4.6,1.5,1,2.5,1s2.9-.4,3.7-1.2,1.5-2.1,1.5-3.5,0-1.7-.4-2.3c-.2-.8-.6-1.2-1.2-1.7-.8-.6-2.3-1-4.2-1h-2.7l.4-.4Z"/>
      <path class="st1" d="M770.9,152.8c1.2,0,2.1.4,2.9,1.2s1.2,1.9,1.2,2.9-.4,2.1-1.2,2.9-1.9,1.2-2.9,1.2-2.1-.4-2.9-1.2-1.2-1.9-1.2-2.9,0-1.2.4-1.7c.2-.6.6-1,1-1.5.8-.6,1.7-1,2.7-1Z"/>
    </g>
  </g>
</svg>